<svg id="Layer_1" data-name="Layer 1" xmlns="http://www.w3.org/2000/svg" viewBox="0 0 250.11 250.07"><defs><style>.cls-1{fill:#010101;}</style></defs><title>vedabase-logo</title><path id="_Compound_Path_" data-name="&lt;Compound Path&gt;" class="cls-1" d="M125.07,250c-1.92,0-3.89,0-5.86-.13A125,125,0,0,1,40.65,32.59,125.05,125.05,0,0,1,249.87,130.7,125.06,125.06,0,0,1,125.07,250ZM124.81,5.6a119.34,119.34,0,0,0-5.29,238.56,119.36,119.36,0,0,0,93.6-199.67A118.55,118.55,0,0,0,130.41,5.73C128.53,5.65,126.69,5.6,124.81,5.6Z" transform="translate(0.11 0.09)"/><path id="_Path_" data-name="&lt;Path&gt;" class="cls-1" d="M54.65,202.91c1,1.53,1.66,3.24,2.67,4.77.79,1.22,1.09,2.76,2.54,3.59-.44.52-.7-.22-1.14.17,1.71.74,3.59-.74,3.85-2.71.35-2.54-.31-5-.74-7.39s-1.88-4.68-2.89-7c-.22-.48-.79-.79-1.18-.48-1.27.92-1.71-.39-1.84-.87-.17-.79-.83-1.53-.61-2.41s-.44-.92-1.36-.87c.79-.48,1-.83.83-1.44-.52-1.4-1-2.8-.44-4.33.09-.22-.17-.22-.31-.31a3.26,3.26,0,0,1-1.36-2.76c.35-1.62-1-3.06-.17-4.64-1.66-1-1.09-3-1.84-4.37-.35,0-.52.39-.61.66-.83,2.8-1.62,5.6-1.14,8.62a120,120,0,0,0,3.76,16.14C53.3,199.2,53.56,201.34,54.65,202.91Z" transform="translate(0.11 0.09)"/><path id="_Path_2" data-name="&lt;Path&gt;" class="cls-1" d="M113.35,61Z" transform="translate(0.11 0.09)"/><path id="_Path_3" data-name="&lt;Path&gt;" class="cls-1" d="M96.51,231.17c-.22.09-.35.31-.57.39a1.61,1.61,0,0,1-.79,0c-.35,0-.7,0-.92.31a.8.8,0,0,0,.31,1.27c0,.09,0,.13.13.17.44.13.7-.09,1-.35a5.22,5.22,0,0,0,1.27-.92C97.43,231.61,97.17,230.91,96.51,231.17Z" transform="translate(0.11 0.09)"/><path id="_Path_4" data-name="&lt;Path&gt;" class="cls-1" d="M97.52,228.33s-.26,0-.35-.09a.21.21,0,0,0-.39-.09l0,0a.16.16,0,0,0,0,.13,1.93,1.93,0,0,0-1,1.4.76.76,0,0,0,.22.79c.26.17.57,0,.83,0,.52-.22,1.18-.52,1.22-1.18a1.11,1.11,0,0,0-.17-.74Z" transform="translate(0.11 0.09)"/><path id="_Path_5" data-name="&lt;Path&gt;" class="cls-1" d="M139.16,189.88c-1,.52-1,.52-1.31,1.66,0,.09-.09.22-.17.22-2,1-2.71,2.8-3.37,4.72-.22.7-.13,1.09.48,1.18s.74-.48.79-1,.13-.74.39-.57c.61.39.74,0,1-.44.83-1.62,1.44-3.46,3.59-3.89,0,0,.09-.17.13-.26-.26-.35-.61.09-.92-.17.13-.83.92-.61,1.27-1.14.92-1.27,1.49-2.84,2.93-3.67a1.07,1.07,0,0,0,.48-1.22,1.25,1.25,0,0,1,.48-1.36,8.93,8.93,0,0,0,3.85-3.46,7.09,7.09,0,0,1,2-2.23,20,20,0,0,0,5-5c.31-.48-.13-1.27.61-1.62,2.27-1,2.41-3.81,4.37-5.07a.88.88,0,0,0,.13-.87c-.44-1-.7-2.62-1.49-3-1.49-.66-1.49-1.62-1.4-2.84a.89.89,0,0,0-.7-.92c-.48-.13-.57.17-.79.52s-.92,1-1.22.66c-1-1.27-.83.17-1,.44-.66.7,1,1,.35,1.53s-1-1.09-1.4-.83c-.7.48-1.14,1.31-2,1.71.7,1-.48,1.44-.7,2.19-.66,2-2.36,3.37-3.54,5.07-2.06,2.93-4.37,5.6-5.73,9-.35.83.26,2.8-1.88,2.76,1.44.13,1.49,1,1.36,1.92,0,.39-.44.7-.13,1.14a.59.59,0,0,1,0,.74c-.39.31-.52-.17-.74-.31s-.48-.92-.92-.39c-.31.35-.35.87.35,1.27A2,2,0,0,1,139.16,189.88Z" transform="translate(0.11 0.09)"/><path id="_Path_6" data-name="&lt;Path&gt;" class="cls-1" d="M136.49,212.54c.7-1.71,1.84-3.19,2.58-4.81.57-1.31,1.71-2.45,1.62-4.07.66.09.22.7.74.87-.31-1.84-2.58-2.62-4.37-1.79-2.32,1.09-4,3-5.82,4.64s-2.89,4.11-4.29,6.21c-.26.44-.22,1,.22,1.22,1.44.57.61,1.62.26,2-.57.61-.87,1.53-1.71,1.84s-.52.87,0,1.62c-.83-.44-1.27-.44-1.66.09-.87,1.18-1.79,2.41-3.41,2.71-.22,0-.09.26-.13.39A3.28,3.28,0,0,1,119,226.1c-1.53.57-2.06,2.49-3.81,2.67,0,2-1.92,2.54-2.67,3.94a.82.82,0,0,0,.87.13c2.8-.83,5.56-1.71,7.83-3.72a114.13,114.13,0,0,0,11.5-11.94C134.13,215.69,135.75,214.29,136.49,212.54Z" transform="translate(0.11 0.09)"/><path id="_Path_7" data-name="&lt;Path&gt;" class="cls-1" d="M130.8,114.25c.22.52.66.48,1.09.74s.48.79,1,.92a.58.58,0,0,0,.74-.44.93.93,0,0,0,0-.35,1.08,1.08,0,0,1,.35-.61,3.06,3.06,0,0,0,.35-.44.57.57,0,0,0-.22-.79.62.62,0,0,0-.48,0,.77.77,0,0,0-.35.22c-.26.22-.17.26-.61.26s-.26-.09-.61-.13h-.31c.09-.31.17-.66-.17-.79s-.52.13-.48.44c0,0,0,0-.09.09A.75.75,0,0,0,130.8,114.25Z" transform="translate(0.11 0.09)"/><path id="_Path_8" data-name="&lt;Path&gt;" class="cls-1" d="M138,109a.7.7,0,0,0-.48-.44,1.83,1.83,0,0,0-1.14.22s0,0-.09,0a.87.87,0,0,0-.26,1.4c.26.35.39,0,.7.7a6.79,6.79,0,0,1,.17.92,4.71,4.71,0,0,0,.31,1.36c.26.44.92.79,1.36.31.17-.22.13-.39.09-.66a1.63,1.63,0,0,1,.09-1.36,4.39,4.39,0,0,1,.87-.7c.35-.31.7-.83.35-1.27a.6.6,0,0,0-.7-.17c-.35.09-.44.57-.74.66-.22-.09-.44-.22-.61-.31,0-.09,0-.22.09-.31A1.19,1.19,0,0,0,138,109Z" transform="translate(0.11 0.09)"/><path id="_Compound_Path_2" data-name="&lt;Compound Path&gt;" class="cls-1" d="M124.51,144a2.34,2.34,0,0,0,.7-.57,4,4,0,0,1,2.58,0,4.69,4.69,0,0,0,2.27.52c1.31-.26.83-1.22.22-1.92-.35-.39-.39,0-.22-.74s.22-.48.7-.22a1.23,1.23,0,0,0,.66.26,7.12,7.12,0,0,1,1.36.13c.26,0,.39.22.66.17.87-.17.83-.92.66-1.71a.2.2,0,0,0,.17-.13c.17-.7.74-.92,1.18-1.4s1-.74,1.44-1.18c.61-.7.31-1.14-.22-1.66-.35-.39-.31-.26-.39-1,0-.26,0-.31,0-.61-.13-.61-1.49-.44.31-1.57.26-.17.48-.09.74-.35a4.86,4.86,0,0,0,.87-1.62c.09-.17-.13-.35-.31-.26-.92.57-2,.26-3,.66-.48.17-1,.13-1.53.31a4.06,4.06,0,0,1-.44.22,0,0,0,0,0,0,0c-.39.48-.39.17,0-1a.2.2,0,0,0,.35-.09c.31-.92-.26-1.27-1-1.49-.26-.09.79.57-.44-.17-.66-.39-.17-.09-.44-.48a2.34,2.34,0,0,0-.22-.48.62.62,0,0,0-.74-.26c-.26.13-.22.31-.31.57a4.4,4.4,0,0,1-1.14,1.57c-.35.31-.87.35-1.18.74-.13.17-.09.31-.17.48s0,.35,0,.39l-1,.31a2.66,2.66,0,0,0-.31-.44c-.48-1,0-2.1-.09-3.15a1.1,1.1,0,0,0-.44-1c-.66-.35-1,.26-.83.79.09.35.26.7-.17,1-.17.13-.48.09-.66.17a.78.78,0,0,0-.48.66c0,.13.09.26,0,.35-.09.57.74-.35-.39.66-.61.57-.44.39-1,.17a1.82,1.82,0,0,0-1.36-.13c-.57.26-.87,1-.31,1.4s1.09,0,1.49.61c.17.22.09.52.44.61.13,0,.22-.09.35-.09a2.08,2.08,0,0,1,1.09.31c.35.22.61.61,1.09.44s.52-.52,1-.66.39,0,.7.26a8.41,8.41,0,0,0,.74.57c.09.09.22.13.31.22.26.22.66,1,.44,1.44-.13.22-1.14.31-1.36.35-.61.17-.7.66-1.36.87a5.83,5.83,0,0,0-1.44.57,4.68,4.68,0,0,0-.7.61,2.33,2.33,0,0,1-1.92.44,1.62,1.62,0,0,0-1.27.26c-.52.48-.26,1.18-1.09,1.44-.66.22-1.66,0-2,.79a1.18,1.18,0,0,0,.26,1.18c.17.22.7.61.52.87s-.44.13-.57.26c-.57.57.17.87.66.92,1.27.13,2.23.17,3.11,1.27.39.48.7,1,1.36,1.18a1,1,0,0,0,1.14-1.27c-.09-.17-.22-.13-.35,0C122.54,144.83,124,144.3,124.51,144Zm3.59-6.34.48-.13c.7,0,1.49,0,2.1,0a4.73,4.73,0,0,1,1.92.13c.57.22.61.61.7,1a3.93,3.93,0,0,1-1.84.57c-.57,0-1-.39-1.44-.52s-.74,0-1.27,0-.66-.09-.79-.31v-.13a.2.2,0,0,0-.17-.22C127.79,137.92,127.83,137.74,128.09,137.7Zm-2.32,2.1a5.86,5.86,0,0,1,.26-.52c.22-.39,0-.44.61-.48h0c0,.09.13.13.22.26s.17.13.26.22c.83.74.79,1.18-.22,1.36-.22-.09-.13-.39-.52-.39-.13,0-.26.13-.39.13-.13.22-.31.22-.48,0,0,0,0,0,0-.09A2.32,2.32,0,0,1,125.77,139.8Z" transform="translate(0.11 0.09)"/><path id="_Path_9" data-name="&lt;Path&gt;" class="cls-1" d="M121.49,137.61c.48.31,1-.17,1.27-.57a7.7,7.7,0,0,0,.44-1.31,1.51,1.51,0,0,0,0-.87.75.75,0,0,0-.48-.48,8.74,8.74,0,0,0-.92-.44,2.45,2.45,0,0,0-1.88.52,1,1,0,0,0-.26,1.44c.39.48.92.31,1.36,0a.23.23,0,0,0,.09-.17c.22-.22.44-.44.74-.31,0,0,.17,0,.22,0a2.34,2.34,0,0,1-.17.7C121.71,136.56,120.83,137.22,121.49,137.61Z" transform="translate(0.11 0.09)"/><path id="_Path_10" data-name="&lt;Path&gt;" class="cls-1" d="M129.54,120.68c-.31,0-.52,0-.79,0-.44,0-.57.44-.74.79s-.61.83-.48,1.18.44.31.7.26.17-.09.17-.22h0c.48-.17.83-.61,1.27-.79s1,.17,1.53-.09c1-.52-.79-1-1-1.14A1.46,1.46,0,0,0,129.54,120.68Z" transform="translate(0.11 0.09)"/><path id="_Path_11" data-name="&lt;Path&gt;" class="cls-1" d="M120.66,126.89c.13,0,.22-.17.31-.26a1,1,0,0,1,.31-.31c.09,0,.17,0,.26-.09.61-.26.48-.92-.13-1.09-.26-.09-.35,0-.48-.31-.09-.09-.09-.17-.22-.22h-.09c-.09-.13-.26-.17-.35,0a2.22,2.22,0,0,0-.17,2.14A.42.42,0,0,0,120.66,126.89Z" transform="translate(0.11 0.09)"/><path id="_Path_12" data-name="&lt;Path&gt;" class="cls-1" d="M114.49,144.78a.91.91,0,0,0,0,.48c.09.39.39.48.7.66.66.39,1.66,2.06,2.62,1.57a.59.59,0,0,0,.31-.61c-.09-.48-.61-.57-1-.74s-1.18-.61-1.18-1.31c0-.26.22-.52.17-.79a2,2,0,0,0-.83-1.27.22.22,0,0,0-.35,0,.24.24,0,0,0-.13.22,2.69,2.69,0,0,1,.09.83C114.84,144.13,114.58,144.43,114.49,144.78Z" transform="translate(0.11 0.09)"/><path id="_Path_13" data-name="&lt;Path&gt;" class="cls-1" d="M102.5,162.63c.09,0,.17-.13.17-.22,0-.31,0-.57.09-.87.61,0,1.4-.26,1.22-1s-1.66-.48-1.79-1.27c0-.26-.44-.17-.44.09a.15.15,0,0,0-.09,0C100.67,159.13,100.36,163,102.5,162.63Z" transform="translate(0.11 0.09)"/><path id="_Path_14" data-name="&lt;Path&gt;" class="cls-1" d="M45.33,110.71c-.66-1.79-.7-3.63-1.49-5.47a10.28,10.28,0,0,0-3.11-4.11c-1.27-1-2.06-.52-3.46-.13a22.32,22.32,0,0,0-3,.57c-1.22.52-2.14,1.75-3.46,1.79-.66,0-1.31-.31-1.92,0-1,.48-1.49,1.71-2.41,2.32-.44.31-.87.87-.66,1.36a.8.8,0,0,0,.48.44c.52.35,1.09.7,1.66,1-.17,0-.31.17-.26.35s.22.26.35.35c2.36,1.44,4.77,2.89,7,4.55,1.84,1.4,3.15,3.37,4.86,4.9a1.91,1.91,0,0,0,1.88.66,3.84,3.84,0,0,0,1.4-.83c.92-.7,1.84-1.44,2.76-2.14,1.57-1.22.92-2.67,0-4.16A6,6,0,0,1,45.33,110.71Z" transform="translate(0.11 0.09)"/><path id="_Path_15" data-name="&lt;Path&gt;" class="cls-1" d="M100.23,162.15c-.09,0-.17.09-.17.22a3.83,3.83,0,0,0,.26,1.22,2.3,2.3,0,0,0,.44,1.92.6.6,0,0,0,1-.31,1.55,1.55,0,0,0-.17-.74,8.12,8.12,0,0,1-.26-1.49A.9.9,0,0,0,100.23,162.15Z" transform="translate(0.11 0.09)"/><path id="_Compound_Path_3" data-name="&lt;Compound Path&gt;" class="cls-1" d="M239.94,118.89h0A115.29,115.29,0,0,0,130.19,10.11,115.06,115.06,0,0,0,55.92,217.17a4.44,4.44,0,0,0,1.14.7c.66-.44-2.36-4.37-2.58-5-.35-1-1.31-1.57-2.06-2.27a2.67,2.67,0,0,0-.31-.61c-.44-.79-1.14-1.36-1.57-2.14s-.31-1.84-.61-2.76A7.92,7.92,0,0,0,48.79,203a24.86,24.86,0,0,1-2.06-5.9q-.92-3.28-1.57-6.56c-.44-2.06-.79-4.11-1.14-6.12-.17-1.09-.35-2.14-.52-3.24a12.58,12.58,0,0,1-.31-2.84h0c1-.52.92-1.84.44-2.71-.57-1-1.22-1.75-1-3a3,3,0,0,0-.13-2.14c-.35-.52-.66-.44-1.18-.61-1.09-.39-.83-1.22-.48-2.06a7.88,7.88,0,0,0,.44-1.44c.39-2.19,0-4.24,1-6.34a4.27,4.27,0,0,0,.57-2.06v-.17c.31.61.66,1.27,1,1.88a14.89,14.89,0,0,1,.39,2.8c0,.44-.13,1.18.17,1.57.66.87,2.45-.13,3.15-.44a20.48,20.48,0,0,0,2.36-1.31,50.59,50.59,0,0,0,5.34-2.67c1.66-1,3.59-2.06,4.55-3.81s-.61-3.24-1.36-4.77c-.48-.92-.87-1.88-1.27-2.84a25.75,25.75,0,0,0-1.14-3.06,2.82,2.82,0,0,0-.48-.7c.31-.61.87-.66,1.36-.92v.09c1.14,2.49,2.67,7.44,6.39,5.82l.44.13c2.54.79,3.19,4.72,4.07,6.82,1.36,3.32,2.76,6.65,4.11,10A20.94,20.94,0,0,0,73.68,170c.74,1.09,1.71,2.06,2.36,3.24.83,1.44,1.22,3.19,2.23,4.55,1.66,2.32,3.94,3.67,4.16,6.56a10.06,10.06,0,0,1-1.18,5.56A31.34,31.34,0,0,0,78.36,196a1.48,1.48,0,0,0-.09.87c.09.31.39.52.66.39a.69.69,0,0,0,.31-.31c1.49-2.06,2.27-4.55,3.28-6.87a18.59,18.59,0,0,1,2.19-3.85,7.76,7.76,0,0,0,1.53-2.41c.31-.92,0-1.79,1.14-2.23a1.81,1.81,0,0,1,2.23,1c.22.52.17,1.14.52,1.57a1.44,1.44,0,0,0,1.75.22,3.77,3.77,0,0,0,1.31-1.31,1.65,1.65,0,0,0,.44-1.44c-.09-.31-.35-.48-.48-.79s0-.7.26-.7.22,0,.35,0c.31,0,.57-.17.87-.22a1.47,1.47,0,0,1,1,.48c.48.39,1,.79,1.4,1.18a3.68,3.68,0,0,1,1,1,1.18,1.18,0,0,1-.13,1.36.55.55,0,0,1-.39.17c-.31,0-.61-.39-.83-.17a.32.32,0,0,0-.09.26c0,.35-.09.66-.13,1-.66,0-1,.87-.79,1.49.35.83,1.88,1,1.4,2.06a2.25,2.25,0,0,1-.87-.39,6.45,6.45,0,0,1-1.31-1.14.2.2,0,0,0-.35.09c-.39,1.36,1,2.14,1.71,3a5.65,5.65,0,0,1,1,5.6.21.21,0,0,0,.26.26c.61,0,.7.87,1,1.18a4.22,4.22,0,0,0,.79.44,5,5,0,0,1-1.57.31c-.87,0-1.09-.52-1.53-1.14-.22-.31-.52-.48-.87-.26s-.48,1.31-.48,1.79a2.36,2.36,0,0,0,.61,1.84,3.43,3.43,0,0,0,.92.39c.52.22.26-.26.57.66s.17.52-.39.52-1.09,0-1.31.48c-.7,1.4,2.23,1.84,2.76,2.89A2.88,2.88,0,0,1,94.89,204a.21.21,0,0,0-.39,0,1.69,1.69,0,0,0,.09,1.53.81.81,0,0,0-.39.74,1.94,1.94,0,0,0-.52.66,3.08,3.08,0,0,0-.17,1.27,5.87,5.87,0,0,1-.44,1.92c-.31.74-1,2.76.52,2.71a1.37,1.37,0,0,0,1.18-.92c.35-.66.31-1.53,1.22-1.79a4,4,0,0,1,1.44,0,.86.86,0,0,0,.87-.7,1.78,1.78,0,0,1,.57,1.92,6.21,6.21,0,0,1-1,2c-.44.61-.79.92-1.62.7-.35-.09-.17-.22-.57-.22a.86.86,0,0,0-.66.22,1.55,1.55,0,0,0-.35.87,4.05,4.05,0,0,1-.22,1.4c-.09.17-.26.31-.35.48a1,1,0,0,0,.09,1c.39.92.83,1.44.44,2.49-.48,1.27-2.89,3.11-4.24,2.36a.78.78,0,0,1-.31-.22,4,4,0,0,1,.44-1.57c0-.13,0-.26-.13-.31a3,3,0,0,0-1.66-.22c-.87.09-1.09.52-2-.22-.52-.39-1.14-.79-1.71-.17a1.09,1.09,0,0,0,.17,1.62c.83.61,1.75.09,2.62.26a2.68,2.68,0,0,0,1.09,1.57c1.22.83,1.92,1,2.67,3.41A4.77,4.77,0,0,1,91.7,228v.09a.77.77,0,0,0,0,1.09c.74.79,1.71-.31,2.23-.74s1.62-.57,1.49-1.62a16.08,16.08,0,0,1-.66-2.49A3.37,3.37,0,0,1,96,221.77c1.88-1.75,4.77-2,6.39-4a3,3,0,0,0,.74-2.67,1.29,1.29,0,0,0-1.66-.87c-.87.39-1.14,1.92-1.66,2.67a2.8,2.8,0,0,1-1.14,1l-.79.17c-.87-.35-1.09-.74-.61-1.18a13.87,13.87,0,0,1,1.57-2,9.69,9.69,0,0,0,1.75-3.15,4.7,4.7,0,0,0,.22-1.75,3.4,3.4,0,0,0-.09-.7c-.09-.31-.39-.74-.39-1l1-1,.52.39a6.4,6.4,0,0,0,.57.39,1.8,1.8,0,0,0,1.27.09,3,3,0,0,0,1.79-2.27,60.39,60.39,0,0,1,4-9.71c3.06-6.08,7.87-11.68,8.35-18.68.83-1.31,1.79-2.54,1.84-4.16a.23.23,0,0,0-.22-.22,13.6,13.6,0,0,0-1.92.26,5,5,0,0,1-1.09.26c-.61.26-.52.09.22-.48a2.31,2.31,0,0,0,.57,0c.74,0,1.36-.39,1.22-1.18,0-.09-.13-.17-.22-.17l-.83-.13c.31-.39.61-.79.92-1.22a.61.61,0,0,0,.61.35c1.36.13,2.54-1.09,3.19-2.14,1-1.71,1.75-3.67,2.67-5.47.35-.79.7-1.53,1.09-2.32.26-.52.74-1.18.57-1.84,0-.26-.22-.35-.31-.57a1.62,1.62,0,0,1-.09-1.66,3.5,3.5,0,0,1,.57-.57,7.58,7.58,0,0,0,1.71-2c.44-.87,1.75-2.67,1.31-3.72a1,1,0,0,0-.83-.66c-.17,0-.31.09-.48.09-.39,0-.13.74-.79-.31,0-.09,0-.26-.09-.31a.88.88,0,0,0-.92-.48,2.52,2.52,0,0,0-.61.13,2.42,2.42,0,0,1-1.75.13c-.26-.09-1.22,0-.83-.7.09-.13.57-.31.7-.48a1.79,1.79,0,0,0,.44-1.44c0-.09-.09-.13-.13-.17-.79-.17-1.22.26-1.75.79a.83.83,0,0,1-.92.52.72.72,0,0,1-.83,0c-.13,0-.22,0-.35,0a2,2,0,0,0-1,.39,2,2,0,0,1-2.23-.17,2.54,2.54,0,0,0-1-.48.93.93,0,0,0-.83.17c-.44.35-.22,1-.61,1.4s-1.71.22-1.75,1c0,.39.52.7.48,1.09-.57.48-1,.52-1.14.09l-.31-.48c-.26-.48-.44-.61-.26-1.18.09-.35.31-.66-.17-.83-1.09-.39-.92,2.41-2.14,1.31a.23.23,0,0,0-.39.13.74.74,0,0,0,.17.61c.31.35.57.09,0,.61s-.39.31-.79,0c-.22-.17-.48-.31-.7-.48l-1.57-1.09a.14.14,0,0,0-.09,0c-.52-1.27.52-.83.87-1.09s.57-.39,1.31-.26c.26,0,.31.17.57.09a2.56,2.56,0,0,0,.74-.57,2.1,2.1,0,0,0,.48-.39.66.66,0,0,0-.09-.83c0-.09-.17-.09-.26,0a1.19,1.19,0,0,1-1.71-1.09c0-.74.48-.74.79-1.22s.13-.31.09-.7c0-.09-.13-.13-.13-.22a5,5,0,0,1,.52-1c.09-.09.26,0,.39-.09.31-.31.26-.52.39-.87.35-.87,1.49-.22,1.36-1.57,0-.61-.61-1.22-1.22-.74a1.46,1.46,0,0,0-.26.44c-.31.57-.31.83-1,1.09a11,11,0,0,1-1.09.39,8.44,8.44,0,0,1-1.49,0,.77.77,0,0,0-.57.26c-.09.17,0,.31-.09.48-.22.48-.31.22-.48.44-.61,1,1,1.14.66,2.06a5.16,5.16,0,0,1-.57.79c-.26.26-.35.26-.39.66,0,.22.09,1.09-.13.92s-.13-.35-.22-.44A.54.54,0,0,0,104,146c-.66.26-.31.79.13,1.09a4.13,4.13,0,0,0-1.71,1.53c-.22-.17-.44-.09-.57.17-.26.52.09.83-.7,1.09-.22.09-.26,0-.44.17a7.26,7.26,0,0,0-.57.61,1.37,1.37,0,0,0-.39.48c-.13.26-.09.66.22.74h.09c-.13.17-.31.35-.26.52a.87.87,0,0,0,.35.52c.13.09,1.09.26.44.61-.26.13-.7-.22-1,.09s-.09.74.22,1c.83,1.75,2.89,1.44,3.85,0l1.18-2c.22-.39.74-1,.74-1.44a.92.92,0,0,0-.17-.48c-.09-.26-1.44-.22-.09-1a3.42,3.42,0,0,0,.61.13c-.09.44.57,1,1.14,1.31a12.83,12.83,0,0,1,.13,1.79c0,1-.57.92-1.4.83a2.15,2.15,0,0,0-1.79.31.21.21,0,0,0,0,.31c.17.26,1.44,1.79,1.22,2.1-.09.13-1,.09-1.18.22a1.84,1.84,0,0,0-1.09,1.57.21.21,0,0,0,.22.22c.87.13,1.31-.92,2.27-.83a1.62,1.62,0,0,1,.79.35c1,1,.09.48.09,1,0,.13-.09.31,0,.44.13.31.7.61.92.79a12.74,12.74,0,0,1,1.36,1.31c.52.61,1.31,1.4.66,2.23-.13.17-.35.26-.48.48-.26.48.09.87.35,1.27s1,1.71,1.57,1.79,1.18-.87,1.71-1.14a14.22,14.22,0,0,1,1.75-.66,4.3,4.3,0,0,1,.7-.22c.17,0,.35-.13.52-.17.39-.17.7,0,1,.52-.52.61-1.75.52-2.14,1.36a.55.55,0,0,0,.13.74c.48.35.83-.44,1.31,0a.2.2,0,0,0,.35-.09,3.09,3.09,0,0,1,.48-1.09,2.43,2.43,0,0,0,.35-.26,1,1,0,0,1,.31,1.09c0,.17-.22.35-.22.57a.71.71,0,0,0,.35.79c.35.22.61,0,.87.39a0,0,0,0,0,0,0c-.83,0-1.92,1.27-2.41,1.66-.7.57-1.31.92-2.19.39-.31-.17-.57-.48-.87-.66a1.43,1.43,0,0,0-1.44-.13,2.4,2.4,0,0,0-1,1.14c-.35.74-.48,3.11-1.66,2.76A14,14,0,0,1,108,173l.09-.13a4.35,4.35,0,0,1,.48-.44,6,6,0,0,0,.74-.74,3.4,3.4,0,0,0,.61-2.23c0-.17-.22-.31-.35-.17a10.16,10.16,0,0,0-1.92,2.19,5.28,5.28,0,0,1-.92,1.22,1.33,1.33,0,0,1-2.19-1.36.21.21,0,0,0-.13-.26c-1.49-.57-2.14-2-2.76-3.37-.13-.26-.48,0-.39.22a25.83,25.83,0,0,0,3.11,5.6c.35.48.74,1,1.14,1.44.22.26,1.14,1,1.14,1.36-.22.26-.48.52-.7.79-.09-.09-.22-.13-.31-.22s-.22-.17-.35-.22a1.33,1.33,0,0,0-.7-.13,10.21,10.21,0,0,1-1.09.31c-.09,0-.13,0-.22,0-.17-.22-.35-.48-.52-.7a5.05,5.05,0,0,1,.35-.66,1.19,1.19,0,0,0,0-1.31.92.92,0,0,0-.57-.22c-.61-.17-1-.17-1.36-.7s-.44-.74-1-.7a.24.24,0,0,0-.22.26c.09.66.13,1.27.22,1.92-1-.26-1.53-2.54-2.71-2.49.35-2.36.44-4.86-.87-7a.23.23,0,0,0-.35,0c-.87.66-.61,1.84-.66,2.8-.13,1.49-1.22,1-2,.35a2.23,2.23,0,0,0-1.36-.57A3.83,3.83,0,0,1,90.43,166a3.54,3.54,0,0,0,.31-1,.92.92,0,0,0,.57.22c.48,0,.7-.79,1-.79a.2.2,0,0,0,.17-.13c.35-.74-1-1.88-.26-2.32.39-.26,1.4-.09,1.88-.17a3.28,3.28,0,0,0,1.53-.7c.79-.74.87-1.84,1.22-2.8a3.56,3.56,0,0,1,1.44-1.66,1.08,1.08,0,0,0,.48-.92.23.23,0,0,0-.09-.17.16.16,0,0,0,0-.13c-.57-.61-.09-1.27-.61-1.84-.17-.22-.48-.26-.61-.52-.79-1.4,1-1,1.44-1,.17,0,.22-.13.22-.26a1.88,1.88,0,0,0-.44-1,2.2,2.2,0,0,1-.44-.61c-.22-.48-.09-.39.31-.44s1.62.44,1.84-.31-.66-.83-1-1h-.13c-.44-.44-.66-1.09,0-1.49a1.9,1.9,0,0,0,.74-.52c.09-.09.17-.13.22-.22.48-.83-.61-1.44-.66-2.23a.85.85,0,0,1,.52-1l.61-.13c.13,0,.17,0,.31-.09a.54.54,0,0,0,.22-.44c0-.39-.39-.48-.48-.79-.09-.57.57-.61.87-.83a.78.78,0,0,0,.35-.48c0-.17-.09-.17-.09-.44v0c-.44-.44-.22-.87.57-1.31a.21.21,0,0,0,.22-.22V138c.26.48.66.83,1.27.52a.79.79,0,0,0,.35-.92c-.09-.57-.44-.87-.22-1.49a2.21,2.21,0,0,1,1.79-1.4,2.71,2.71,0,0,0,.83-.31c.09,0,.17-.13.26-.17a1.08,1.08,0,0,1,1.44.13c.31.35.39.7.7,1a0,0,0,0,0,0,0,12.48,12.48,0,0,0,2.49,2.06c.39.26,1,.74,1.49.39a.91.91,0,0,0,.26-.44c.09-.26,0-.22,0-.48a1.25,1.25,0,0,1,.83-1.4,5.8,5.8,0,0,1,2.14-.13c.66,0,1.31,0,2-.09.17,0,.31-.17.22-.31-.44-.83-.79-2-1.71-2.41a5.12,5.12,0,0,1-.87-.22,7.74,7.74,0,0,0,0-1l.52-.13c.22,0,.7,0,.87-.26.39-.52-.44-1.31-.74-1.71-.57-.66-1.53-1.09-.22-1.79.17-.09.35,0,.52-.22a1,1,0,0,0,.17-.61c0-.22-.13-.39-.13-.57-.17-2.27.31-1.09.92-1.62a1.76,1.76,0,0,0,.57-.7c.13-.31,0-1.14.17-1.31s.61-.13.74-.26a2,2,0,0,0,.44-.61l.22-.22s.13-.09.17-.13a.73.73,0,0,1,.66.13s.09,0,.13,0a1.58,1.58,0,0,0,.57.48.2.2,0,0,0,.31-.13c.52-1.31,1.53,0,2.41-.31a1,1,0,0,0,.7-1.22c-.09-.61-.35-.57.22-1.27,0-.09.22,0,.31-.13a2.68,2.68,0,0,0,.22-.52c.31-.66.61-.48,1.22-.57a1,1,0,0,0,.7-.31.21.21,0,0,0,0-.31c-.39-.39-.79-.79-1.18-1.14s-1-1.09,0-1.36c.66-.17,1.66.52,2.27.17.92-.52-.09-1.14-.52-1.62a.16.16,0,0,0,0-.13c0-.17.13-.31.17-.48,0,0,.13,0,.17,0s.17,0,.22-.09a.74.74,0,0,0,.26-.26.55.55,0,0,0-.22-.7,1.12,1.12,0,0,0-.92,0l-.48.26-.26.13c-.31-.22-.48-.48-.17-.83-.13.13.66-.31.48-.26,1.62-.52,1.14,0,1.75.26.35.13.44.35.83.13a1.57,1.57,0,0,0,.48-1,3.9,3.9,0,0,1,.39-1.71c0-.13,0-.22,0-.35.92-.57,1.49-.48,1.62.35a2.26,2.26,0,0,0,.26.57c.92,1,1-.7,1.36-1a.33.33,0,0,0,.09-.22c0-.09-.17-.52-.13-.57a1.43,1.43,0,0,1,.57.17.84.84,0,0,0,.57,0,.89.89,0,0,0,.26-.31c0-.09,0-.17,0-.26v-.13c0-.39.31-.52,1-.39a.21.21,0,0,0,.35,0,7.44,7.44,0,0,1,.83-.83l.26-.26c.74.22,1,.57.79,1.09,0,.09.09.22.13.22a3.32,3.32,0,0,0,.92,0c.09.48.31,1,.87.66.35-.17.57-.87.7-1.18s.26-.74.39-1.09.13-.52.22-.74.13-.26.22,0a4.39,4.39,0,0,1,.83,1,2.38,2.38,0,0,1,.09,1.09c0,.35,0,.61.31.79,1,.52,1.49-1,2.14-1.22a.2.2,0,0,0,.13-.31c-.26-.48-.87-.22-.87-.87a7.16,7.16,0,0,1,.44-1.66c.52-.17.52,1.22.57,1.49s.17.61.52.66.44-.17.66-.31a3,3,0,0,1,1.71-.74,5.19,5.19,0,0,1-1.79,2.1c-.09.09-.17.13-.22.22a3.28,3.28,0,0,0-.87.44c-.22.17-.61.52-.48.83s.44.26.66.13.17-.35.35-.39a.16.16,0,0,1,.13,0,.53.53,0,0,0,.22.22c.39.31.57,0,.92.52s.13,1.09.7,1.44c1,.66,2-.48,2.14-1.4a1.9,1.9,0,0,0-.31-1.31c-.39-.83.17-1,.92-.92a1,1,0,0,1,1,1.27c0,.09-.17.17-.22.31a2.68,2.68,0,0,1-.74,1.49,13.18,13.18,0,0,1-1.22,1c-.61.48-1.22.83-1.27,1.66a7.26,7.26,0,0,1,.13,1c-.09.79-.35,1-.66.87a.31.31,0,0,0-.26-.13,2.84,2.84,0,0,1-1-1.22c-.31-.83-.31-1.27-1.18-1.75-.35-.17-.7-.35-1-.09s-.39,1.27-.74,1c-.17-.13.31-1.57.17-1.92a1.06,1.06,0,0,0-1.14-.66,2,2,0,0,0-.83.35,5.29,5.29,0,0,0,.22-1c0-.48-.44-.61-.74-.31s-.22.31-.57.31c-.09,0-.17,0-.26,0a.33.33,0,0,0-.26.35c0,.26.26.52.35.74a2.49,2.49,0,0,1,.17,1.14,2.2,2.2,0,0,0-.22.57c-.09.35.09.57,0,.92,0,.7-1.31,1.92-1.84,2.32a1.57,1.57,0,0,0-.74,1.09c-.79-.26-1.62-.92-2.41-.48a2.36,2.36,0,0,0-.83,2.49c.13.31.57.35.66.57h0c-.13,0-.17,0-.39.13s-.13.09-.13.17,0,0,0,0a3.78,3.78,0,0,0-.7.44c-.79.61-1.62,1.66-1.31,2.67a4,4,0,0,0,.31.61c.26.48.22.35,0,1-.31,1.14,0,.31-.44.66s-.52.26-.7.61a3.09,3.09,0,0,0-.22,1.66c0,.44-.22,1.22,0,1.62.39.7,1.22.39,1.71,0,.26-.22.52-.52.74-.74s.57-.79.79-.79c.92-.17.57,1.49.39,1.84a5.93,5.93,0,0,0-.44.92,1,1,0,0,0,1.14,1.31c.31,0,.87-.22,1-.52a.51.51,0,0,0,0-.44c0-.13-.13-.52-.13-.44-.31-.57,0-.7.87-.48,1.09-.39,1.31-.13.74.87a.2.2,0,0,0,0,.22.89.89,0,0,0,0,.48.23.23,0,0,0,.31.13,3.31,3.31,0,0,0,1.49-1,2.94,2.94,0,0,0,.31-.48,1.31,1.31,0,0,1,.87-.7c.13-.09.22,0,.35-.17s.09-.35.22-.57c.44-.66.61-.52,1.22-.7a1.3,1.3,0,0,0,.87-.79,2.43,2.43,0,0,0-.17-1.66c-.22-.74-.44-1.53.22-2.14a3.41,3.41,0,0,1,1.71-.79c1.22-.31,3,.17,3.59-1.27,0-.13-.09-.26-.22-.31l-1.49-.26c.61-1.4,1.22-3.59,3.19-2.89.66.26,1.27.74,1.79,0a1.62,1.62,0,0,0-.26-2.19c-.57-.66-.87-1.31-.26-2.06a6.81,6.81,0,0,0,.48-.52.88.88,0,0,0,0-.74c0-.13-.31-.35-.31-.48-.31-.92.31-1,.87-1.49.31-.22.57-.44.83-.66,1.22-.09,2.84.09,2.54,1.66-.17.79-1.4,1.14-2,1.53a3.29,3.29,0,0,0-1.57,2.8c0,.79.31,1.44,1.22,1.22.66-.17.92-.83,1.57-1,.87-.26,1.36.48,2,1a2,2,0,0,0,2,.7c.79-.26,1-1.14,1.22-1.84A4.33,4.33,0,0,1,162,112c.48-.57,1.27-.48,1.75-1a2.77,2.77,0,0,0,.61-1c.13-.31.22-.61.35-.92a1.31,1.31,0,0,1,.39-.44s0,0,.09,0a1.65,1.65,0,0,1,.92-.17c.7.39,1.53,1.53,2.1,1.66a1,1,0,0,0,.7-.09c.44-.26.7-1.31,1.44-.92a.23.23,0,0,0,.35-.17c-.09-1-1.14-2-.44-3s2.41-.48,3.32-.87a4.46,4.46,0,0,0,2.36-3.54.77.77,0,0,1,.17-.22c1.75-2.36,6.87-2.14,9.19-1,2.1,1,3.63,2.89,5.07,4.68,2.49,3.06,5,6.12,7.52,9.19a.15.15,0,0,0,0,.09c.26,1,1.14,1.31,1.66,2.06a47.13,47.13,0,0,0,5.77,7c2.27,3.28,4.24,6.82,6.65,10s4.68,6.3,7,9.49a2.06,2.06,0,0,0,.26.66,13,13,0,0,0,2.36,3.28c.22.22.44.44.66.7l1,1.36a10.5,10.5,0,0,1,1.88,3.76,3.69,3.69,0,0,1-.74,3.28s.09.13.13.17h-.44c-1.88-.13-2.62-1.66-3.41-3.06-.13-.22-.22-.61-.39-.66-2.1-.57-3.19-2.45-4.94-3.46-1.4-.83-2-2.36-3.11-3.5a13.68,13.68,0,0,0-2.89-2.58,17.83,17.83,0,0,1-4.37-3.76c-1-1.14-2.62-1.75-3.94-2.62-1.75-1.18-3.94-1.49-5.51-3a1.22,1.22,0,0,0-1-.17,8.14,8.14,0,0,1-4.77-1.14c-1.57-1.09-3.37-.79-4.86-1.62a5.86,5.86,0,0,0-4.55-.39,6,6,0,0,1-5-.52c-.92-.61-1.31.39-2,.35-1.49-.13-3.19.57-4.24-1.14-.09-.13-.22-.22-.39,0-1,1.18-2.36.31-3.5.39-.44,0-1-.09-1,.44.31,1.71-.87,1-1.57,1-.22.57.57.57.52.83-.26,1.22.48.57,1,.57a18.1,18.1,0,0,0,4.07.13c4.29-.87,7.79,1.53,11.5,2.89a47.5,47.5,0,0,1,6,2.93c1.22.66,2,2.27,3.24,3.11,2.36,1.57,4.11,4,6.78,5.25.74.35,2,1,1.62,2s-1.62.31-2.45.13c-1.71-.44-3.32-1.31-5.12-1.4a6.64,6.64,0,0,1-.92-.13c-1,0-2.32-.17-2.49.79s1,2.1,2,2.27c3,.52,5.86,1.75,9,1.57,1,0,1.66,1.22,1.66,1.84a2.86,2.86,0,0,0,1.22,2.32,12.62,12.62,0,0,0,3.72,2c1.66.48,2.45,2.06,3.67,3.11a.51.51,0,0,1,0,.83,1.11,1.11,0,0,1-1.57-.17,19.36,19.36,0,0,0-4.59-2.67c-3.54-1.66-7.13-3.19-10.76-4.68-.92-.35-2-.17-2.93-.74-.61-.39-1-1.36-2.06-1a5.73,5.73,0,0,0-1.31,0c-1.27.26-2.14-.66-3.06-1.36-.44-.31-.74-1.14-1.4-.74s0,1.14,0,1.79c-1,0-2,.66-2.8-.66-.35-.57-4.07,0-4.51.52a.66.66,0,0,0-.13.57c.26,1.22-.13,1.66-1.44,1.75-.87,0-1.66.83-2.71.74-.57,0-1.14.61-.48,1.36a2.64,2.64,0,0,1,.57,2.58,1.68,1.68,0,0,0,.26,1.57,1.83,1.83,0,0,1,.44,2.32.22.22,0,0,0,0,.13c1.79,2.58-.66,4.07-1.57,5.9-.83,1.62-1.92,3.15-2.84,4.72a80.17,80.17,0,0,1-8.35,11.11,35.21,35.21,0,0,0-4.33,6c-.22.44-.66.74,0,1.09.35-.74,1.53,1.09,1.62-.52,0-.48.48-.57.92-.83a13.66,13.66,0,0,0,.39,2,2,2,0,0,1-.39,2.45c-.39.35-.66.7.17.83.17,0,0,.48-.26.61-2.23,1.44-2.62,4-3.67,6.12a8.08,8.08,0,0,1-1.79,2.45,12.6,12.6,0,0,0-2.49,3.89c-.57,1-1.31,2-1.88,3-1.4,2.54-2.49,5.21-4,7.65A44.71,44.71,0,0,1,134,227.5a31.18,31.18,0,0,0-3.15,4.42c-.83,1.22-1.22,2.32-.39,3.72.17.31-.26,1.14-.61,1.49s-.48-.39-1-.57a2.68,2.68,0,0,1-1,3.15,2.29,2.29,0,0,0-.44.48,115.11,115.11,0,0,0,86.26-42,27.27,27.27,0,0,0,1.88-2.36,114.58,114.58,0,0,0,24.19-65.48A77.29,77.29,0,0,0,239.94,118.89ZM39.26,141.59a.29.29,0,0,1-.31.17c-1.27.09-2.45-1.22-3-2.23a12.47,12.47,0,0,1-1.27-3.72,26.17,26.17,0,0,1-.26-9.4,1.38,1.38,0,0,1,.26-.74c1.22-1.44,2.14,3.28,2.32,3.94.44,1.4,1.36,2.84,1.22,4.33a17.18,17.18,0,0,0-.26,4.24c.17,1.22,1.18,2,1.4,3.28C39.3,141.42,39.3,141.5,39.26,141.59Zm18.33,2.1-.13-.26s-.09-.09-.13-.09.09,0,.13-.09a.7.7,0,0,0,.17-.31l.13.66C57.67,143.56,57.63,143.6,57.58,143.69Zm.83-28.52a1,1,0,0,0-.31-.31c-.61-.39-2,.17-1.92-1,0-.44.57-.92.66-1.4.39-2.54-4.33-.87-5.21-.22-1.31,1-2,2.67-3.19,3.85s-2.54,1.79-3.5,3c-2.36,2.76,1.27,4.51,3.28,5.73a.16.16,0,0,0,.13,0,.84.84,0,0,1,.13.35,1.22,1.22,0,0,1-1.14,1.31c-1.09.13-2.27-.35-3.37-.31a3.68,3.68,0,0,0-1.18.17c-.17,0-.35.13-.52.17a2,2,0,0,0-.44.22l-.87-.52c-.22-.26-.17-.66-.44-.92A1.81,1.81,0,0,0,40,125c-.26-.61-.66-1.22-.87-1.66a20.36,20.36,0,0,0-2.32-3.41c-1.18-1.4-3.41-4-5.42-2.76,0-.52-.13-1-.17-1.53,0-.17-.26-.22-.35-.13-.48.39-1,.92-1.71.7a2,2,0,0,1-1-.83c-.31-.44-.57-.92-.92-1.36A3.81,3.81,0,0,0,25,112.28a2.25,2.25,0,0,0-1.88.52c-.52.44-.39,1.14-.52,1.71,0-.26,0-.52-.09-.79a.2.2,0,0,0-.31-.13,4.15,4.15,0,0,1-1.44.57c-.83.17-1.22,0-1.27-.83a5.85,5.85,0,0,1,.87-2.8c.61-1,1.75-2,1.53-3.24-.17-1-1.22-1.57-2.1-2a4,4,0,0,0-1.71-.44,9,9,0,0,1-1.88.09c-.74-1.31.92-2.76,2.36-2.67s2.19.83,3.28,1.36c1.75.83,2.45-.66,3.46-1.79A7.64,7.64,0,0,1,28.19,100c1.22-.52,2.45-1,3.67-1.53s2.36-1,3.5-1.44A9.27,9.27,0,0,1,38,96.19c1.66-.17,2.8,1.62,3.81,2.67,1.31,1.4,2.67,2.76,4,4.11.17.13.31.31.52.35,1,.26,1-2.14,1.14-2.71.26-1.44.35-2.93.52-4.37.26-2.89,0-5.86.17-8.75.17-2.71-.13-5.77.79-8.22a2.45,2.45,0,0,1,3.41-1.14s.09,0,.13.09a5.68,5.68,0,0,1,1,1.44A5,5,0,0,1,54,81.71a5.37,5.37,0,0,1-.35,1.66c-.52,1.27-1.57,1.18-2.49,2-.61.52-1.57.57-1.79,1.44a1.81,1.81,0,0,0,.13,1.27c0,.09.09.17.13.17a.33.33,0,0,0,.22,0,7.45,7.45,0,0,1,1.71-.09.89.89,0,0,1,.79.87c0,.48-.44.79-.7,1.18-.44.74-.22,1.66-.48,2.45a11.07,11.07,0,0,1-.52,1,1.59,1.59,0,0,0-.17,1.4c.26.57,1.09.61,1.62,1a2,2,0,0,1,.39,2.23,19.82,19.82,0,0,1-1.18,2.1c-.57,1.14-.74,2.58-1.75,3.32-.26.22-.61.39-.66.74a.75.75,0,0,0,.39.7,13.36,13.36,0,0,0,1.4.57c.57.26,1.09.52,1.62.79a18.74,18.74,0,0,1,3,1.84,8.14,8.14,0,0,1,3.24,6C58.46,114.69,58.46,114.91,58.41,115.17Zm43.35,37.49c0-.09-.13-.17-.17-.26s-.17-.35-.31-.48-.13-.13-.17-.17.09,0,.17-.09a1.59,1.59,0,0,1,.61-.09C102.24,151.87,102.2,152.22,101.76,152.66Zm14,14.17a4.06,4.06,0,0,1-.44.22.81.81,0,0,1-.31.09.4.4,0,0,1,.22-.13,4.86,4.86,0,0,0,.7-.31A.6.6,0,0,1,115.8,166.83Zm-12.38,4.24a3.58,3.58,0,0,0,.87.52,2.78,2.78,0,0,0,.09,1C104,172.12,103.73,171.6,103.42,171.07ZM103,199.81s-.09-.09-.13-.09a5.31,5.31,0,0,0,.39-.87.64.64,0,0,1,.26-.39v.26C103.51,199.2,103.9,200.38,103,199.81Zm3.41-9c-.26,0-.61,0-.83.09h0c.52-.26,1-.57,1.36-.79v0A1.53,1.53,0,0,1,106.4,190.8ZM100,190a2.23,2.23,0,0,1,1.4-1.75c.92-.22,1.79.44,2.58.83a4.46,4.46,0,0,0,3.19.22c0,.09,0,.22,0,.31a.13.13,0,0,0-.17,0,11.84,11.84,0,0,1-1.62.92,3.92,3.92,0,0,1-1,.35.73.73,0,0,1-.83-.09c-.61,0-.7-.35-.13-.92a.25.25,0,0,0,0-.39,1.49,1.49,0,0,0-2,.26c-.83,1-.31,2.32-.13,3.41a3,3,0,0,1,.13.83c-.17.22-.79,0-.92-.13a2.15,2.15,0,0,1-.66-1.75A5,5,0,0,1,100,190Zm-.17,8.4h0a.16.16,0,0,1,0,.13.32.32,0,0,0,.09.26c.39.26.52,0,.92-.09.61-.13.74,0,.83.31a.94.94,0,0,0-.61.39c-.09.17-.09.44-.17.57-.61.44-1,.35-1.22-.35A3,3,0,0,1,99.84,198.37Zm-4.77-20.69.17-.17s.09,0,.13,0,0,.13.17.13.26.09.44,0,.44-.61.52-1.14c0,0,0-.09.09-.13a.19.19,0,0,0,.17-.26v0a7.89,7.89,0,0,0,.35-.92.85.85,0,0,1,.35,0c.52-.44.83-.35.92.17a3.76,3.76,0,0,1,0,.7c0,.44-.09.83-.09,1.27a1.93,1.93,0,0,0,.31,1.14.77.77,0,0,0-.31.7,1.32,1.32,0,0,0,.22.7c.09.17.31.26.39.44s.13.13.17.22c-.7,1.22-1.18,1.31-1.44.31h0c0-.83-1.4-1.4-2.36-1.66l-.09-.09a.21.21,0,0,0,.09-.35C95,178.29,94.67,178.07,95.07,177.68Zm42.87-60.76a.59.59,0,0,1,.52.79c-.09.26-.31.39-.44.61l0,0a1.13,1.13,0,0,1-.48-.61C137.45,117.36,137.54,116.88,137.93,116.92Zm-2.27-.44c0-.22.13-.35.17-.48s.09-.31.13-.44c.13-.31.39-.31.52,0s-.26.7-.44,1a.47.47,0,0,0-.13.31A.87.87,0,0,1,135.66,116.48Zm3,5.12a.44.44,0,0,1-.17.22c-.13.09-.31.09-.48.17s-.13.09-.17.13a.52.52,0,0,1-.57-.22c-.13-.17-.17-.39-.31-.57a.88.88,0,0,0-.7-.48.47.47,0,0,0-.44.61c0,.13.17.26.13.39s0,.09-.09.13a6.73,6.73,0,0,1-.57.52.37.37,0,0,1-.22.13.62.62,0,0,1-.26-.09,1.44,1.44,0,0,1-.7-.74.72.72,0,0,1,.39-.87c.17,0,.31,0,.48,0,.61-.13,0-1,.09-1.44s.26-.35.22-.66a.33.33,0,0,0-.09-.17,1.55,1.55,0,0,1,.39-.17v.13c0,.35.66.17.87.44a.59.59,0,0,1,.09.7.93.93,0,0,0-.13.31c0,.31.26.52.57.57a1.68,1.68,0,0,1,.83.22c.22.22.35.61.66.61S138.68,121.51,138.63,121.6Zm3.11,1.36c-.13.7-.66,1-1.31.48a2.22,2.22,0,0,1-.57-1.53c0-.22-.09-.57-.35-.66a.45.45,0,0,0-.39.09.26.26,0,0,1,0-.17c0-.09,0-.22,0-.35a1.76,1.76,0,0,1,.7-.57.55.55,0,0,1,.26,0c.48.17.92,1.09,1.27,1.49S141.87,122.26,141.74,123Zm1.66-6.69c-.17.48-.17,1.22-.57,1.62,0,0-.13.09-.17.13a1,1,0,0,1-1.09-.13.6.6,0,0,1-.13-.17.39.39,0,0,1,0-.22,8,8,0,0,1,1.88-2.45,1.23,1.23,0,0,0,.44-.61c.13-.87-1.36-.39-1.75-.17,0-.35-.26-.66-.31-1s0-.57.31-.66a.75.75,0,0,1,.52.09,2.13,2.13,0,0,1,1.49,1.66A5.9,5.9,0,0,1,143.4,116.26ZM82.21,103.8c.26-1.22.57-2.41.92-3.59a5.57,5.57,0,0,1,4.72-2,2.36,2.36,0,0,0,.57.31c.57.26,1.57.39,1.88.92a1.75,1.75,0,0,1-.26,1.84,4.76,4.76,0,0,1-1,.61,5.26,5.26,0,0,0-1.18.7,12.93,12.93,0,0,1-1.14,1l-.35.22a14,14,0,0,0-2.1,1.14,4.26,4.26,0,0,0-1,.66C82.6,105.24,81.95,105,82.21,103.8ZM88,177.46a1.61,1.61,0,0,1,0-.66c0-.09.09-.13.09-.22l1.49-.39a.24.24,0,0,0,.17-.26c-.09-.61-.52-.87-1.09-1-.13,0-.52-.13-.87-.26,0-.17-.09-.39-.13-.57.48,0,1.53.09,1.79.09a.37.37,0,0,0,.22-.13l1.44.92a1.62,1.62,0,0,1-.92.26c-.09,0-.22.17-.17.26l1.14,3.15A5.12,5.12,0,0,1,88,177.46ZM91,167.92a2.09,2.09,0,0,0,1.22.44,11.51,11.51,0,0,0,.92,1.79,1.28,1.28,0,0,0-.39-.09c-.13-.13-.31,0-.35.17A3.37,3.37,0,0,1,90,173.3c-.09,0-.22.13-.17.26v0c-.13,0-.26-.13-.39-.17a.21.21,0,0,0-.26.13,4.91,4.91,0,0,1-1.57-1.71c.79,0,1.71-.22,1.79-1.14a.87.87,0,0,0-.31-.79c-.26-.26-.61-.44-.87-.7a3.1,3.1,0,0,1-.66-1.31,5.93,5.93,0,0,0,.87.09c.17,0,.22-.13.22-.26-.09-.79,1.09-.52,1.4-.35A1.73,1.73,0,0,1,91,167.92Zm1.84-57.47a3.45,3.45,0,0,1-1.31,1.18,41.31,41.31,0,0,1-5.16,2.14c-1,.35-2.1.35-2.93,1A18.37,18.37,0,0,0,83,112c-.17-1.57,0-4.07,1.27-4.2.83-.09,1.36.52,2.06.87,1.57.79,3.63-.31,5-1,.13-.09.26-.13.39-.22a1.86,1.86,0,0,1,.48-.09,2.19,2.19,0,0,1,1.36.44A5.59,5.59,0,0,1,92.79,110.45Zm52.4-28.61a2.13,2.13,0,0,1-.13.31,11.7,11.7,0,0,1-.79,1.22c-1.49,2.36-1.66,5.42-2.71,8-1.62,3.89-4.11,8-7.83,10.19-1.75,1-4.55,2.19-6.65,1.71-3-.7-1.71-4.51-1-6.47a1.54,1.54,0,0,1,.57-.87c1.14-.74,2.89,1,3.67,1.66,1.22,1,2.54,1.84,4.16,1.36a5.82,5.82,0,0,0,3.11-2.19,7.52,7.52,0,0,0,1-1.84A17.78,17.78,0,0,1,140,92.73a25.06,25.06,0,0,0,3.15-12.16c.31,0,.52-.31.79-.44a1,1,0,0,1,1.22.52A2.18,2.18,0,0,1,145.19,81.84Zm-7.92.26c.17-1.31,1.66-1.71,2-2.89a3.07,3.07,0,0,1,.13-.61l0-.13a1,1,0,0,1,.7-.22c.61.09.66.66.66,1.18-.52,1.71.7,3.54.26,5.29-.31,1.09-.74,2.19-1.14,3.24a10.87,10.87,0,0,1-2,3.72,13.91,13.91,0,0,1-6,3.32,6.06,6.06,0,0,1-2.14.31,2.2,2.2,0,0,1-.52-.09c0-.39,0-.79.09-1.18a5.21,5.21,0,0,1,.87-.35,3,3,0,0,0,.35-.13c.52-.26,1-.61,1.49-.87,1-.48,2.19-.48,3.11-1.27a7.42,7.42,0,0,0,2.58-5.73C137.67,84.51,137.1,83.28,137.28,82.1Zm-5.56,4.72a4.78,4.78,0,0,1-1.57,2.71c-.66.17-1.4-.09-1.36-.87a3.57,3.57,0,0,1,.66-1.57c.22-.31,1.66-2.45,2.23-1.53A2.46,2.46,0,0,1,131.72,86.83Zm39.5-37.22a9.38,9.38,0,0,0-1,.79,3.43,3.43,0,0,1-2.32.83,4,4,0,0,0-1.27.09c-.74.26-1,.92-1.84,1a4.81,4.81,0,0,0-1.36.17,5.4,5.4,0,0,0-1.27,1,3.28,3.28,0,0,1-2.45.66,3.42,3.42,0,0,0-1.4.52c-1.36.87-2.45,1.79-4.16,1.62-.7-.09-1.53-.22-1.92.48s-.13,1.27-.74,1.79a1.77,1.77,0,0,1-2.89-1.27c0-.13-.17-.17-.26-.17a3.08,3.08,0,0,0-1.75,1.22c-.83,1-1.4,1.92-2.76,2.27a5.35,5.35,0,0,0-2.54.87c-.92.79-.7,2.14-1.49,3.06-.66.74-1.84,1-2.23,2-.44,1.27,1,2.1.13,3.41-.52.74-2,1-2.23,1.88a.76.76,0,0,0,.74,1c.13,0,.17-.09.22-.17A5.75,5.75,0,0,1,144,76.46c.17.61.48,1.79,0,2.32-.22.26-.61.31-.87.52a1.3,1.3,0,0,0-.44-.83s-.13-.09-.17-.13c.09-1.31-1.4-2.62-2.49-3.06a3.88,3.88,0,0,0-4.68,1.27c-.61.92-.87,2-1.44,2.93A6.44,6.44,0,0,1,132.47,81c-.52.44-1.27.66-1.71,1.18,0,0,0,.09-.09.13a4.1,4.1,0,0,0-1.4,1.14,6.27,6.27,0,0,0-1,2.62,13.33,13.33,0,0,1-1.53,3.63c-1.09,1.71-3.41,1.84-4.77,3.28a28,28,0,0,1-1.75,2.23A9,9,0,0,0,118,97.89a6.22,6.22,0,0,1-2.23-3.24,3.41,3.41,0,0,0-.57-1.49,1,1,0,0,0-1.4-.17,1.78,1.78,0,0,1-.61-1.57,3.73,3.73,0,0,1,.66-1.62,9.41,9.41,0,0,1,1.75-2c.48-.44,2-1.75.52-2-1-.17-2.27.87-3.06,1.31a10.94,10.94,0,0,1-2.67,1c-.83.22-1.88.09-2.54.74a4,4,0,0,0-.57.92,22.18,22.18,0,0,1-3,4,2.6,2.6,0,0,0-.79,2.14c.13.44.48.87.39,1.31s-.74.74-1.22,1c-1,.57-1.22,2.71-2.8,1.88a4.51,4.51,0,0,1-1.14-1.09A3,3,0,0,0,97.6,98a2.4,2.4,0,0,0-2.54.52c-.09.09-.17.13-.22.22a3.36,3.36,0,0,1-.44-.79,2.31,2.31,0,0,0-.48-.92,1.42,1.42,0,0,0-1-.44h0c-.13-.26-.48-.35-.74-.44a6.93,6.93,0,0,1-2.32-.79c-.74-.52-1.31-1.36-2.23-1.66-1.27-.44-2.62.26-3.67.79a8.34,8.34,0,0,1,.7-5.25,2.5,2.5,0,0,1,.57-.92c.74-.7,2.06-.74,3-1.09A21,21,0,0,0,91.13,86c1.66-.92,3.15-2.45,2.14-4.46-.61-1.27-2.06-.83-3.11-.57a19.77,19.77,0,0,1-3.59.57c-1,0-2.32-.52-3.32-.17A2.19,2.19,0,0,0,81.95,83a3.42,3.42,0,0,0,.13,1.75,7.11,7.11,0,0,1,.57,1.18s0,.09-.09.13-.35,0-.52.09A6,6,0,0,1,82.21,79a25.28,25.28,0,0,1,7.44-6.34c3.28-1.84,8-3.15,7.61-7.74,0-.22,0-.39,0-.61a4.43,4.43,0,0,0,1.36.17,4.66,4.66,0,0,0,2.14-.74,2.88,2.88,0,0,1,1-.48c1-.57,1.49,0,1.36,1.88a5.7,5.7,0,0,1-1,.83.88.88,0,0,0-.35.17c-.09,0-.13.13-.22.17a5.2,5.2,0,0,1-2,.66c-.09,0-.17.13-.17.22s0,.22,0,.35a.77.77,0,0,0,.17.22.65.65,0,0,1-.57.52c-.26.22-.44.26-.44.61s.39.74.83.83c.26.09.57,0,.83,0,1.14.26-1.84.52-1.84.52-1.14.39,0,1.71.61,2a2.94,2.94,0,0,0,1.84.17c.87-.17,2.36-1.36,3.06-.52a1,1,0,0,1-.22.13c-.31.13-.74.39-.66.79a.54.54,0,0,0,.61.35c-.13,0-.17.22-.17.35a.33.33,0,0,0,.31.22c.13,0,.31-.13.44-.09s.09,0,.13.09c.57.48,1.22,0,1.57-.52s1.84-.7,2.32-.87c.79-.31,1.62-.66,2.41-.87,1.49-.44,3-.52,4.24-1.57a2.83,2.83,0,0,1,.39-.35c.39-.13.74-.31,1-.39.87-.31,1.71-.83,2.67-.35a5.63,5.63,0,0,1,1.31,1,4,4,0,0,1,1.44,2.89,6.44,6.44,0,0,1-.92,1.71c-1,1.22-2.45,1.75-3.59,2.71s-1.36,2.1-2.14,3.15a2.62,2.62,0,0,1-2.93.66,2.5,2.5,0,0,1-.83-.83c-.13-.22-.31-.57-.52-.87a1.66,1.66,0,0,0-.22-.74c-.61-.79-2.14.57-2.8.74-1.27.26-1.71-.7-2.71-1-.83-.22-1.66.17-2.45-.13-.09,0-.26,0-.26.13-.22,1-1.53,1-2.06,1.88a.14.14,0,0,0-.13.13c-.17.44-.35,1,0,1.4a.78.78,0,0,0,.31.22h.13a5.51,5.51,0,0,1,2.1,4.42c0,.79-.22,1.53-.31,2.27a4.94,4.94,0,0,0-1.66,1.88,5.34,5.34,0,0,0-.57,1.66,6.53,6.53,0,0,0-.09.92,12.61,12.61,0,0,0-1.75,3.72c-.09.22.17.35.35.22a16,16,0,0,0,3.06-2.89c1-1.18,1.66-2.71,2.76-3.81.83-.83,1.44-1.27,1.4-2.58a6.85,6.85,0,0,1,.13-2.49,4.09,4.09,0,0,1,.83-1.44,1.52,1.52,0,0,1,1,.35,2.51,2.51,0,0,0,.17.61.72.72,0,0,0,.7.31,1.06,1.06,0,0,0,.83-.44.89.89,0,0,0,.44-.31c.26-.22.31-.57.48-.83a1.88,1.88,0,0,1,1.75-.74,3.43,3.43,0,0,0,.61.09c.26,0,.48,0,.74.09l.48.13a7.15,7.15,0,0,1,1,.09c.87.17.83.57,1.44.83s.79,0,1.22-.22a7.2,7.2,0,0,1,1.36-.17c.22,0,.35,0,.52-.13a1.33,1.33,0,0,0,.22-.31c0-.09,0-.17,0-.26a1.79,1.79,0,0,1,1-1.14,5.72,5.72,0,0,1,3.28-.79,2.67,2.67,0,0,0,1.44-.44l1.62-.13a7.62,7.62,0,0,0,1-.22c.92.31,2-.52,2.62-1.4,1.53-2.06,1.84-4.2,2.32-6.47a5.87,5.87,0,0,1,1.75-3.11c.61-.57,1.44-1,1.53-1.88.13-1.44-.83-1.27-1.79-1.31-.22.31-.44.31-.66.09a.68.68,0,0,1-.35-.26c-.17,0-.26-.26-.44-.31a1.45,1.45,0,0,0-.83.13c0-.31.31-.7.35-.87a2.68,2.68,0,0,0,.31-.74c.17-.87-.17-1.57.26-2.45a.48.48,0,0,0,0-.35s0,0,0-.09c.17-.44-.39-.7-.7-.44-.61.48-.87,0-1.31-.31a.43.43,0,0,0-.66.22,5,5,0,0,0-.48.48,7.29,7.29,0,0,1-.22-1.71c0-.35.26-1,0-1.4s-.39-.52-.87-.52a.48.48,0,0,0-.44.31c-.39.31-.74.61-1.14.87a.42.42,0,0,0-.44.31c-.17.83-1.18.48-1.71.44-.22,0-.26.17-.44.13s-.22-.44-.39-.48c-.74-.26-1.49-.48-2.14.22a1.61,1.61,0,0,0,.09,2.14,1.81,1.81,0,0,0,1.36.7,2.69,2.69,0,0,0,.83-.09,3.64,3.64,0,0,0,.66-.17c1.66,0,1.88.66.66,1.79a.43.43,0,0,0-.74,0l-1.36.22a4.25,4.25,0,0,1-.83-.35c-1.14-.61-1.44-1.84-2.19-2.8a.4.4,0,0,0-.44-.13c-.7.13-1.31.66-2,.74-2.67.39-1.88-1.27-3.24-2a1.26,1.26,0,0,0-.7-.13,8.08,8.08,0,0,1-1,0c-.61-.87-.48-1.27.39-1.14,1.22-.57,2.27-.31,3.24-1.53a2.13,2.13,0,0,0,.52-2.06,1.3,1.3,0,0,0-1.09-.83c-1.09-.09-1.22,1-1.79,1.62s-3.19,1.44-3.81,1.62-1.53.17-1.84,1,.13,1.18.7,1.62a4.65,4.65,0,0,0,1.49.52,4.58,4.58,0,0,1,1.62.61,1.75,1.75,0,0,0,.44.52c.17.09,1.49.7,1.27.57.35.22,2-1.62.74,1A5.11,5.11,0,0,1,113.4,64q-2.89.85-3-.79a3,3,0,0,0-.13-.35,2.38,2.38,0,0,0-1.66-.26c-2.62.17-3.76-1-5.56-2.36-.52-.39-.09-.57-1-.74a4.46,4.46,0,0,0-1.53.17,11.2,11.2,0,0,1-2.84,1c0-.09-.09-.13-.13-.22s0-.22-.09-.26a20.86,20.86,0,0,1,2.71-4.29,46.15,46.15,0,0,0,4.42-6.52c2.19-4.46,8.75-7.79,13.12-9.36a53.59,53.59,0,0,1,17-3.24c11.2-.35,25.37,2.67,34.07,10.28a22.27,22.27,0,0,0,2.89,2.49C171.57,49.3,171.39,49.43,171.22,49.6Zm25.54,113c-1.4-.39-2.54-1.4-4.07-1.57-.66-.09-1.18-.79-1.62-1.4a1.45,1.45,0,0,1,.09-1.62c.35-.57.74,0,1.09,0,2.1,0,3.67,1.36,5.51,2.1a106.85,106.85,0,0,0,10.19,4,2.88,2.88,0,0,1,2.27,1.79A106.35,106.35,0,0,1,196.76,162.59Z" transform="translate(0.11 0.09)"/></svg>